<svg height="512pt" viewBox="-51 0 512 512.04659" width="512pt" xmlns="http://www.w3.org/2000/svg"><path d="m51.222656 512.046875h307.199219c28.265625-.027344 51.171875-22.933594 51.203125-51.199219v-358.402344c-.03125-28.265624-22.9375-51.171874-51.203125-51.199218h-57.855469c-4.8125-5.40625-11.703125-8.511719-18.941406-8.53125h-26.308594c-4.144531-24.65625-25.492187-42.714844-50.492187-42.714844-25.003907 0-46.347657 18.058594-50.492188 42.714844h-26.308593c-7.242188.019531-14.128907 3.125-18.945313 8.53125h-57.855469c-28.265625.027344-51.1718748 22.933594-51.1992185 51.199218v358.402344c.0273437 28.265625 22.9335935 51.171875 51.1992185 51.199219zm307.199219-128h-59.730469c-9.425781 0-17.066406 7.640625-17.066406 17.066406v59.734375h-221.867188c-4.714843 0-8.535156-3.820312-8.535156-8.535156v-341.332031c0-4.714844 3.820313-8.535157 8.535156-8.535157h42.664063c0 14.140626 11.464844 25.601563 25.601563 25.601563h153.601562c14.136719 0 25.597656-11.460937 25.597656-25.601563h42.667969c4.710937 0 8.53125 3.820313 8.53125 8.535157zm-12.066406 17.066406-47.664063 47.667969v-47.667969zm-218.332031-341.332031h34.132812c4.714844 0 8.535156-3.820312 8.535156-8.535156 0-18.851563 15.28125-34.132813 34.132813-34.132813 18.851562 0 34.132812 15.28125 34.132812 34.132813 0 4.714844 3.820313 8.535156 8.53125 8.535156h34.136719c4.710938 0 8.53125 3.820312 8.53125 8.53125v34.132812c0 4.714844-3.820312 8.535157-8.53125 8.535157h-153.601562c-4.714844 0-8.535157-3.820313-8.535157-8.535157v-34.132812c0-4.710938 3.820313-8.53125 8.535157-8.53125zm-110.933594 42.664062c0-18.851562 15.28125-34.132812 34.132812-34.132812h51.199219v17.066406h-42.664063c-14.140624 0-25.601562 11.460938-25.601562 25.601563v341.332031c0 14.140625 11.460938 25.601562 25.601562 25.601562h223.332032c3.527344-.011718 7.015625-.753906 10.242187-2.183593.160157-.0625.289063-.164063.441407-.230469 2.75-1.257812 5.253906-2.992188 7.398437-5.121094l66.800781-66.800781c2.105469-2.136719 3.816406-4.625 5.058594-7.355469.085938-.179687.199219-.324218.265625-.503906 1.425781-3.222656 2.167969-6.710938 2.175781-10.238281v-274.5c0-14.140625-11.460937-25.601563-25.601562-25.601563h-42.648438v-17.066406h51.199219c18.851563 0 34.132813 15.28125 34.132813 34.132812v358.402344c0 18.851563-15.28125 34.132813-34.132813 34.132813h-307.199219c-18.851562 0-34.132812-15.28125-34.132812-34.132813zm0 0"/><path d="m162.15625 93.914062h85.332031c4.714844 0 8.535157-3.820312 8.535157-8.535156 0-4.710937-3.820313-8.53125-8.535157-8.53125h-85.332031c-4.710938 0-8.53125 3.820313-8.53125 8.53125 0 4.714844 3.820312 8.535156 8.53125 8.535156zm0 0"/><path d="m145.089844 221.914062c-4.710938 0-8.535156 3.820313-8.535156 8.53125v8.535157h-51.199219v-51.199219h25.601562c4.710938 0 8.53125-3.820312 8.53125-8.535156 0-4.710938-3.820312-8.53125-8.53125-8.53125h-25.601562c-9.425781 0-17.066407 7.640625-17.066407 17.066406v51.199219c0 9.425781 7.640626 17.066406 17.066407 17.066406h51.199219c9.425781 0 17.070312-7.640625 17.070312-17.066406v-8.535157c0-4.710937-3.820312-8.53125-8.535156-8.53125zm0 0"/><path d="m136.554688 290.179688h-51.199219c-9.425781 0-17.066407 7.640624-17.066407 17.066406v51.199218c0 9.425782 7.640626 17.066407 17.066407 17.066407h51.199219c9.425781 0 17.070312-7.640625 17.070312-17.066407v-51.199218c0-9.425782-7.644531-17.066406-17.070312-17.066406zm-51.199219 68.265624v-51.199218h51.199219v51.199218zm0 0"/><path d="m179.222656 204.847656h42.667969c4.710937 0 8.53125-3.820312 8.53125-8.535156 0-4.710938-3.820313-8.53125-8.53125-8.53125h-42.667969c-4.710937 0-8.53125 3.820312-8.53125 8.53125 0 4.714844 3.820313 8.535156 8.53125 8.535156zm0 0"/><path d="m332.824219 187.78125h-76.800781c-4.714844 0-8.535157 3.820312-8.535157 8.53125 0 4.714844 3.820313 8.535156 8.535157 8.535156h76.800781c4.710937 0 8.53125-3.820312 8.53125-8.535156 0-4.710938-3.820313-8.53125-8.53125-8.53125zm0 0"/><path d="m179.222656 238.980469h85.332032c4.714843 0 8.535156-3.820313 8.535156-8.535157 0-4.710937-3.820313-8.53125-8.535156-8.53125h-85.332032c-4.710937 0-8.53125 3.820313-8.53125 8.53125 0 4.714844 3.820313 8.535157 8.53125 8.535157zm0 0"/><path d="m332.824219 221.914062h-34.132813c-4.714844 0-8.535156 3.820313-8.535156 8.53125 0 4.714844 3.820312 8.535157 8.535156 8.535157h34.132813c4.710937 0 8.53125-3.820313 8.53125-8.535157 0-4.710937-3.820313-8.53125-8.53125-8.53125zm0 0"/><path d="m179.222656 324.3125h42.667969c4.710937 0 8.53125-3.820312 8.53125-8.53125 0-4.714844-3.820313-8.535156-8.53125-8.535156h-42.667969c-4.710937 0-8.53125 3.820312-8.53125 8.535156 0 4.710938 3.820313 8.53125 8.53125 8.53125zm0 0"/><path d="m332.824219 307.246094h-76.800781c-4.714844 0-8.535157 3.820312-8.535157 8.535156 0 4.710938 3.820313 8.53125 8.535157 8.53125h76.800781c4.710937 0 8.53125-3.820312 8.53125-8.53125 0-4.714844-3.820313-8.535156-8.53125-8.535156zm0 0"/><path d="m264.554688 341.378906h-85.332032c-4.710937 0-8.53125 3.820313-8.53125 8.535156 0 4.710938 3.820313 8.53125 8.53125 8.53125h85.332032c4.714843 0 8.535156-3.820312 8.535156-8.53125 0-4.714843-3.820313-8.535156-8.535156-8.535156zm0 0"/><path d="m332.824219 341.378906h-34.132813c-4.714844 0-8.535156 3.820313-8.535156 8.535156 0 4.710938 3.820312 8.53125 8.535156 8.53125h34.132813c4.710937 0 8.53125-3.820312 8.53125-8.53125 0-4.714843-3.820313-8.535156-8.53125-8.535156zm0 0"/><path d="m155.21875 157.222656-36.820312 51.53125-9.941407-9.941406c-3.347656-3.234375-8.671875-3.1875-11.960937.105469-3.292969 3.292969-3.339844 8.613281-.105469 11.960937l17.066406 17.066406c1.601563 1.601563 3.769531 2.5 6.03125 2.5h.703125c2.5-.207031 4.78125-1.507812 6.234375-3.546874l42.667969-59.734376c1.914062-2.472656 2.324219-5.792968 1.066406-8.65625-1.257812-2.863281-3.980468-4.808593-7.097656-5.070312-3.113281-.265625-6.125 1.199219-7.84375 3.808594zm0 0"/></svg>