<svg xmlns="http://www.w3.org/2000/svg" xmlns:xlink="http://www.w3.org/1999/xlink"><symbol id="check-mark" viewBox="0 0 512 512"><path d="M369.164 174.77c7.813 7.812 7.813 20.476 0 28.285L234.992 337.23c-7.812 7.81-20.472 7.81-28.285 0l-63.871-63.875c-7.813-7.808-7.813-20.472 0-28.28 7.809-7.813 20.473-7.813 28.281 0l49.73 49.73L340.88 174.77c7.812-7.81 20.476-7.81 28.285 0zM512 256c0 141.504-114.516 256-256 256C114.496 512 0 397.484 0 256 0 114.496 114.516 0 256 0c141.504 0 256 114.516 256 256zm-40 0c0-119.395-96.621-216-216-216-119.395 0-216 96.621-216 216 0 119.395 96.621 216 216 216 119.395 0 216-96.621 216-216zm0 0"/></symbol><symbol id="clipboard" viewBox="-51 0 512 512.047"><path d="M51.223 512.047h307.199c28.265-.027 51.172-22.934 51.203-51.2V102.446c-.031-28.265-22.938-51.172-51.203-51.199h-57.856a25.458 25.458 0 0 0-18.941-8.531h-26.309C251.172 18.059 229.824 0 204.824 0c-25.004 0-46.347 18.059-50.492 42.715h-26.309a25.466 25.466 0 0 0-18.945 8.531H51.223C22.957 51.273.05 74.18.023 102.446v358.402c.028 28.265 22.934 51.172 51.2 51.199zm307.199-128h-59.73c-9.426 0-17.067 7.64-17.067 17.066v59.735H59.758a8.534 8.534 0 0 1-8.535-8.535V110.98a8.534 8.534 0 0 1 8.535-8.535h42.664c0 14.14 11.465 25.602 25.601 25.602h153.602c14.137 0 25.598-11.461 25.598-25.602h42.668c4.71 0 8.53 3.82 8.53 8.535zm-12.067 17.066l-47.664 47.668v-47.668zM128.023 59.781h34.133a8.534 8.534 0 0 0 8.535-8.535c0-18.851 15.282-34.133 34.133-34.133 18.852 0 34.133 15.282 34.133 34.133a8.533 8.533 0 0 0 8.531 8.535h34.137c4.71 0 8.531 3.82 8.531 8.532v34.132a8.533 8.533 0 0 1-8.531 8.535H128.023a8.534 8.534 0 0 1-8.535-8.535V68.313c0-4.711 3.82-8.532 8.535-8.532zM17.09 102.445c0-18.851 15.281-34.132 34.133-34.132h51.199v17.066H59.758c-14.14 0-25.602 11.46-25.602 25.601v341.333c0 14.14 11.461 25.601 25.602 25.601H283.09a25.492 25.492 0 0 0 10.242-2.184c.16-.062.29-.164.441-.23a25.639 25.639 0 0 0 7.399-5.121l66.8-66.8a25.55 25.55 0 0 0 5.06-7.356c.085-.18.198-.325.265-.504a25.452 25.452 0 0 0 2.176-10.239v-274.5c0-14.14-11.461-25.601-25.602-25.601h-42.648V68.312h51.199c18.851 0 34.133 15.282 34.133 34.133v358.403c0 18.851-15.282 34.132-34.133 34.132h-307.2c-18.85 0-34.132-15.28-34.132-34.132zm0 0"/><path d="M162.156 93.914h85.332a8.534 8.534 0 1 0 0-17.066h-85.332a8.532 8.532 0 0 0-8.531 8.53 8.533 8.533 0 0 0 8.531 8.536zm0 0M145.09 221.914c-4.711 0-8.535 3.82-8.535 8.531v8.535h-51.2v-51.199h25.602c4.711 0 8.531-3.82 8.531-8.535 0-4.71-3.82-8.531-8.531-8.531H85.355c-9.425 0-17.066 7.64-17.066 17.066v51.2c0 9.425 7.64 17.066 17.066 17.066h51.2c9.425 0 17.07-7.64 17.07-17.067v-8.535c0-4.71-3.82-8.53-8.535-8.53zm0 0M136.555 290.18h-51.2c-9.425 0-17.066 7.64-17.066 17.066v51.2c0 9.425 7.64 17.066 17.066 17.066h51.2c9.425 0 17.07-7.64 17.07-17.067v-51.199c0-9.426-7.645-17.066-17.07-17.066zm-51.2 68.265v-51.199h51.2v51.2zm0 0M179.223 204.848h42.668c4.71 0 8.53-3.82 8.53-8.536 0-4.71-3.82-8.53-8.53-8.53h-42.668a8.532 8.532 0 0 0-8.532 8.53 8.533 8.533 0 0 0 8.532 8.536zm0 0M332.824 187.781h-76.8a8.533 8.533 0 1 0 0 17.067h76.8c4.711 0 8.531-3.82 8.531-8.536 0-4.71-3.82-8.53-8.53-8.53zm0 0M179.223 238.98h85.332a8.534 8.534 0 1 0 0-17.066h-85.332a8.532 8.532 0 0 0-8.532 8.531 8.533 8.533 0 0 0 8.532 8.535zm0 0M332.824 221.914h-34.133a8.533 8.533 0 1 0 0 17.066h34.133c4.711 0 8.531-3.82 8.531-8.535 0-4.71-3.82-8.53-8.53-8.53zm0 0M179.223 324.313h42.668c4.71 0 8.53-3.82 8.53-8.532a8.533 8.533 0 0 0-8.53-8.535h-42.668a8.533 8.533 0 0 0-8.532 8.535c0 4.711 3.82 8.531 8.532 8.531zm0 0M332.824 307.246h-76.8a8.534 8.534 0 1 0 0 17.067h76.8c4.711 0 8.531-3.82 8.531-8.532a8.533 8.533 0 0 0-8.53-8.535zm0 0M264.555 341.379h-85.332a8.533 8.533 0 0 0-8.532 8.535c0 4.711 3.82 8.531 8.532 8.531h85.332a8.533 8.533 0 1 0 0-17.066zm0 0M332.824 341.379h-34.133a8.534 8.534 0 1 0 0 17.066h34.133a8.533 8.533 0 0 0 0-17.066zm0 0"/><path d="M155.219 157.223l-36.82 51.53-9.942-9.94a8.53 8.53 0 0 0-11.96.105 8.53 8.53 0 0 0-.106 11.96l17.066 17.067a8.527 8.527 0 0 0 6.031 2.5h.703a8.523 8.523 0 0 0 6.235-3.547l42.668-59.734a8.533 8.533 0 1 0-13.875-9.918zm0 0"/></symbol><symbol id="cloud" viewBox="0 0 60 60"><path d="M50.976 26.194C50.447 17.194 43.028 10 34.085 10c-5.43 0-10.688 2.663-13.946 7.008-.075-.039-.154-.066-.23-.102a9.322 9.322 0 0 0-.604-.269 9.062 9.062 0 0 0-.962-.317c-.115-.031-.229-.063-.345-.089a9.567 9.567 0 0 0-.687-.125c-.101-.015-.2-.035-.302-.046A9.096 9.096 0 0 0 16 16c-4.963 0-9 4.037-9 9 0 .127.008.252.016.377v.004C2.857 27.649 0 32.399 0 37.154 0 44.237 5.762 50 12.845 50h24.508c.104 0 .207-.006.311-.014l.062-.008.134.008c.102.008.204.014.309.014h9.803C54.604 50 60 44.604 60 37.972c0-5.489-3.827-10.412-9.024-11.778zM47.972 48h-9.803c-.059 0-.116-.005-.174-.009l-.271-.011-.198.011c-.057.004-.115.009-.173.009H12.845C6.865 48 2 43.135 2 37.154 2 33 4.705 28.688 8.433 26.901L9 26.63V26c0-.127.008-.256.015-.386l.009-.16-.012-.21C9.006 25.163 9 25.082 9 25c0-3.859 3.141-7 7-7a6.995 6.995 0 0 1 1.15.103c.267.044.53.102.789.177.035.01.071.017.106.027.285.087.563.197.835.321.071.032.14.067.21.101A6.995 6.995 0 0 1 23 25a1 1 0 1 0 2 0 8.98 8.98 0 0 0-3.2-6.871C24.667 14.379 29.388 12 34.085 12c7.745 0 14.177 6.135 14.848 13.888-1.022-.072-2.552-.109-4.083.124a1 1 0 0 0 .3 1.977c2.227-.337 4.548-.021 4.684-.002C54.49 28.872 58 33.161 58 37.972 58 43.501 53.501 48 47.972 48z"/></symbol><symbol id="file" viewBox="0 0 60 60"><path d="M45 25H20a1 1 0 1 0 0 2h25a1 1 0 1 0 0-2zM20 19h10a1 1 0 1 0 0-2H20a1 1 0 1 0 0 2zM45 33H20a1 1 0 1 0 0 2h25a1 1 0 1 0 0-2zM45 41H20a1 1 0 1 0 0 2h25a1 1 0 1 0 0-2zM45 49H20a1 1 0 1 0 0 2h25a1 1 0 1 0 0-2z"/><path d="M49 14.586V0H6v55h5v5h43V19.586l-5-5zm-9-6.172l9 9L50.586 19H40V8.414zM8 53V2h39v10.586L39.414 5H11v48H8zm5 5V7h25v14h14v37H13z"/></symbol><symbol id="folder" viewBox="0 0 60 60"><path d="M57.49 21.5H54v-6.268a2.735 2.735 0 0 0-2.732-2.732H26.515l-5-7H2.732A2.736 2.736 0 0 0 0 8.232v43.687h.006c-.005.563.17 1.114.522 1.575A2.546 2.546 0 0 0 2.565 54.5h44.759c1.156 0 2.174-.779 2.45-1.813L60 24.649v-.177c0-1.722-1.056-2.972-2.51-2.972zM2 8.232c0-.404.329-.732.732-.732h17.753l5 7h25.782c.404 0 .732.328.732.732V21.5H12.731c-.144 0-.287.012-.426.036-.973.163-1.782.873-2.023 1.776L2 45.899V8.232zm45.869 43.851a.566.566 0 0 1-.545.417H2.565a.552.552 0 0 1-.448-.222c-.063-.082-.16-.256-.123-.408l10.191-27.953a.566.566 0 0 1 .545-.417H57.49c.38 0 .477.546.502.819L47.869 52.083z"/></symbol><symbol id="group" viewBox="0 0 505.4 505.4"><path d="M437.1 233.45c14.8-10.4 24.6-27.7 24.6-47.2 0-31.9-25.8-57.7-57.7-57.7-31.9 0-57.7 25.8-57.7 57.7 0 19.5 9.7 36.8 24.6 47.2-12.7 4.4-24.3 11.2-34.1 20-13.5-11.5-29.4-20.3-46.8-25.5 21.1-12.8 35.3-36.1 35.3-62.6 0-40.4-32.7-73.1-73.1-73.1-40.4 0-73.1 32.8-73.1 73.1 0 26.5 14.1 49.8 35.3 62.6-17.2 5.2-32.9 13.9-46.3 25.2-9.8-8.6-21.2-15.3-33.7-19.6 14.8-10.4 24.6-27.7 24.6-47.2 0-31.9-25.8-57.7-57.7-57.7s-57.7 25.8-57.7 57.7c0 19.5 9.7 36.8 24.6 47.2-39.7 13.7-68.2 51.4-68.2 95.7v6.6c0 .2.2.4.4.4h122.3c-.7 5.5-1.1 11.2-1.1 16.9v6.8c0 29.4 23.8 53.2 53.2 53.2h155c29.4 0 53.2-23.8 53.2-53.2v-6.8c0-5.7-.4-11.4-1.1-16.9H505c.2 0 .4-.2.4-.4v-6.6c-.2-44.4-28.6-82.1-68.3-95.8zm-74.8-47.3c0-23 18.7-41.7 41.7-41.7s41.7 18.7 41.7 41.7c0 22.7-18.3 41.2-40.9 41.7h-1.6c-22.7-.4-40.9-18.9-40.9-41.7zm-167.4-20.8c0-31.5 25.6-57.1 57.1-57.1s57.1 25.6 57.1 57.1c0 30.4-23.9 55.3-53.8 57h-6.6c-29.9-1.7-53.8-26.6-53.8-57zm-135.6 20.8c0-23 18.7-41.7 41.7-41.7s41.7 18.7 41.7 41.7c0 22.7-18.3 41.2-40.9 41.7h-1.6c-22.6-.4-40.9-18.9-40.9-41.7zm66.2 134H16.2c4.5-42.6 40.5-76 84.2-76.3h1.2c20.8.1 39.8 7.8 54.5 20.3-14.4 15.6-25.1 34.8-30.6 56zm241.3 39.8c0 20.5-16.7 37.2-37.2 37.2h-155c-20.5 0-37.2-16.7-37.2-37.2v-6.8c0-62.1 49.6-112.9 111.3-114.7 1.1.1 2.3.1 3.4.1s2.3 0 3.4-.1c61.7 1.8 111.3 52.6 111.3 114.7v6.8zm11.9-39.8c-5.5-21.1-16-40-30.3-55.6 14.8-12.8 34-20.5 55-20.7h1.2c43.7.3 79.7 33.7 84.2 76.3H378.7z"/></symbol><symbol id="mathematics" viewBox="0 0 512 512"><path d="M239.336 38.672a7.574 7.574 0 0 0-7.574-7.574h-98a18.558 18.558 0 0 0-16.211 9.539c-.059.11-.117.218-.172.328l-42.715 86.683L63.59 97.133a6.634 6.634 0 0 0-.29-.692c-3.066-6.39-9.624-10.52-16.714-10.52H35.852c-4.184 0-7.575 3.391-7.575 7.575s3.391 7.574 7.575 7.574h10.734a3.41 3.41 0 0 1 2.93 1.688l16.972 46.762a7.577 7.577 0 0 0 7.121 4.988 7.577 7.577 0 0 0 6.793-4.227l50.461-102.406a3.39 3.39 0 0 1 2.899-1.633h98a7.573 7.573 0 0 0 7.574-7.57zm0 0"/><path d="M205.813 65.629a7.575 7.575 0 0 0-10.711 0l-19.891 19.89-19.89-19.89a7.575 7.575 0 0 0-10.712 0 7.575 7.575 0 0 0 0 10.71L164.5 96.23l-19.89 19.891a7.58 7.58 0 0 0 0 10.715c1.48 1.477 3.417 2.219 5.355 2.219s3.879-.743 5.355-2.22l19.89-19.89 19.892 19.89a7.567 7.567 0 0 0 5.359 2.22 7.564 7.564 0 0 0 5.355-2.22 7.58 7.58 0 0 0 0-10.714l-19.89-19.89 19.89-19.891a7.579 7.579 0 0 0-.004-10.711zm0 0M35.852 205.004h154.507a7.576 7.576 0 0 0 7.575-7.574 7.574 7.574 0 0 0-7.575-7.575H35.852a7.574 7.574 0 0 0-7.575 7.575c0 4.18 3.391 7.574 7.575 7.574zm0 0M35.852 245.395h154.507a7.574 7.574 0 0 0 7.575-7.575c0-4.18-3.391-7.574-7.575-7.574H35.852a7.576 7.576 0 0 0-7.575 7.574 7.571 7.571 0 0 0 7.575 7.575zm0 0M35.852 285.79h154.507a7.573 7.573 0 1 0 0-15.145H35.852a7.573 7.573 0 0 0 0 15.145zm0 0M35.852 326.184h93.914a7.574 7.574 0 0 0 7.574-7.575c0-4.18-3.39-7.574-7.574-7.574H35.852a7.576 7.576 0 0 0-7.575 7.574 7.571 7.571 0 0 0 7.575 7.575zm0 0"/><path d="M484.23 112.094h-46.96a7.574 7.574 0 0 0-7.575 7.574 7.574 7.574 0 0 0 7.575 7.574h46.96c6.961 0 12.622 5.664 12.622 12.625V484.23c0 6.961-5.664 12.622-12.622 12.622h-235.3c-6.961 0-12.621-5.665-12.621-12.622V139.867c0-6.96 5.664-12.625 12.62-12.625h152.997a7.574 7.574 0 0 0 7.574-7.574 7.574 7.574 0 0 0-7.574-7.574h-55.543V7.574A7.574 7.574 0 0 0 338.809 0H7.574A7.574 7.574 0 0 0 0 7.574v61.14c0 4.18 3.39 7.571 7.574 7.571a7.573 7.573 0 0 0 7.574-7.57V15.148h316.086v96.946H248.93c-15.313 0-27.77 12.46-27.77 27.773v264.078H15.148v-299.93a7.574 7.574 0 0 0-7.574-7.574A7.574 7.574 0 0 0 0 104.016V411.52a7.574 7.574 0 0 0 7.574 7.574H221.16v65.136c0 15.313 12.457 27.77 27.77 27.77h235.3c15.313 0 27.77-12.46 27.77-27.77V139.867c0-15.312-12.457-27.773-27.77-27.773zm0 0"/><path d="M480.695 154.004a7.574 7.574 0 0 0-7.574-7.574H260.04a7.574 7.574 0 0 0-7.574 7.574v74.73a7.574 7.574 0 0 0 7.574 7.575h40.941c4.184 0 7.575-3.391 7.575-7.575s-3.39-7.574-7.575-7.574h-33.367v-59.582h197.934v59.582H336.473c-4.184 0-7.575 3.39-7.575 7.574s3.391 7.575 7.575 7.575H473.12a7.574 7.574 0 0 0 7.574-7.575zm0 0M358.5 260.04a7.574 7.574 0 0 0-7.574-7.575h-90.887a7.574 7.574 0 0 0-7.574 7.574v90.887a7.574 7.574 0 0 0 7.574 7.574h90.887a7.574 7.574 0 0 0 7.574-7.574zm-15.148 83.312h-75.739v-75.739h75.739zm0 0M480.695 260.04a7.574 7.574 0 0 0-7.574-7.575h-90.89a7.576 7.576 0 0 0-7.575 7.574v90.887a7.576 7.576 0 0 0 7.574 7.574h90.891a7.574 7.574 0 0 0 7.574-7.574zm-15.148 83.312h-75.742v-75.739h75.742zm0 0M350.926 374.66h-90.887a7.574 7.574 0 0 0-7.574 7.574v90.887a7.574 7.574 0 0 0 7.574 7.574h90.887a7.574 7.574 0 0 0 7.574-7.574v-90.887a7.574 7.574 0 0 0-7.574-7.574zm-7.574 90.887h-75.739v-75.742h75.739zm0 0M473.121 374.66h-90.89a7.576 7.576 0 0 0-7.575 7.574v90.887a7.576 7.576 0 0 0 7.574 7.574h90.891a7.574 7.574 0 0 0 7.574-7.574v-90.887a7.574 7.574 0 0 0-7.574-7.574zm-7.574 90.887h-75.742v-75.742h75.742zm0 0"/><path d="M285.79 313.059h12.12v12.117a7.574 7.574 0 0 0 7.574 7.574c4.18 0 7.575-3.39 7.575-7.574v-12.117h12.117a7.576 7.576 0 0 0 7.574-7.575 7.574 7.574 0 0 0-7.574-7.574h-12.117v-12.12c0-4.18-3.395-7.571-7.575-7.571a7.573 7.573 0 0 0-7.574 7.57v12.121h-12.12c-4.18 0-7.571 3.39-7.571 7.574s3.39 7.575 7.57 7.575zm0 0M407.984 447.875h39.383a7.574 7.574 0 0 0 7.574-7.574 7.574 7.574 0 0 0-7.574-7.574h-39.383a7.574 7.574 0 0 0-7.574 7.574 7.574 7.574 0 0 0 7.574 7.574zm0 0M407.984 422.629h39.383a7.576 7.576 0 0 0 7.574-7.574 7.574 7.574 0 0 0-7.574-7.575h-39.383a7.574 7.574 0 0 0-7.574 7.575c0 4.18 3.39 7.574 7.574 7.574zm0 0M408.395 324.766a7.562 7.562 0 0 0 5.359 2.214 7.532 7.532 0 0 0 5.351-2.218l8.57-8.567 8.571 8.567a7.535 7.535 0 0 0 5.356 2.218 7.56 7.56 0 0 0 5.355-2.214 7.575 7.575 0 0 0 0-10.711l-8.57-8.57 8.57-8.57a7.575 7.575 0 0 0 0-10.712c-2.96-2.957-7.754-2.96-10.71 0l-8.571 8.57-8.57-8.57c-2.958-2.96-7.75-2.957-10.711 0a7.575 7.575 0 0 0 0 10.711l8.57 8.57-8.57 8.57a7.575 7.575 0 0 0 0 10.712zm0 0M285.79 435.25h39.386a7.574 7.574 0 0 0 7.574-7.574 7.574 7.574 0 0 0-7.574-7.574h-39.387c-4.18 0-7.57 3.39-7.57 7.574a7.573 7.573 0 0 0 7.57 7.574zm0 0M315.582 405.46c0 5.58-4.523 10.099-10.098 10.099-5.578 0-10.101-4.52-10.101-10.098 0-5.578 4.523-10.102 10.101-10.102 5.575 0 10.098 4.524 10.098 10.102zm0 0M315.582 449.895c0 5.574-4.523 10.097-10.098 10.097-5.578 0-10.101-4.523-10.101-10.097 0-5.579 4.523-10.102 10.101-10.102 5.575 0 10.098 4.523 10.098 10.102zm0 0"/></symbol><symbol id="order" viewBox="-33 -100 1063.751 1063"><path d="M566.332 254.23l-151.777-22.148 28.883 99.68 146.964 4.086-6.625-38.067a204.457 204.457 0 0 1-17.445-43.55zm174.816 454.883c40.95 0 74.153 33.215 74.153 74.153 0 40.957-33.203 74.156-74.153 74.156-40.945 0-74.152-33.2-74.152-74.156 0-40.938 33.207-74.153 74.152-74.153zm11.114 63.051c-9.86-9.863-26.828-2.875-26.828 11.102 0 13.98 16.968 20.968 26.828 11.12 6.136-6.136 6.136-16.097 0-22.222zm-357.16-63.05c40.945 0 74.152 33.214 74.152 74.152 0 40.957-33.211 74.156-74.152 74.156-40.95 0-74.157-33.2-74.157-74.156 0-40.938 33.207-74.153 74.157-74.153zm11.109 63.05c-9.86-9.863-26.82-2.875-26.82 11.102 0 13.98 16.964 20.968 26.82 11.12 6.133-6.136 6.133-16.097 0-22.222zm250.215-397.262l18.96 109c45.923-12.28 85.044-40.738 110.727-79.18-46.46 4.755-91.75-6.238-129.687-29.82zm206.105 6.332c-31.25 88.82-109.82 153.004-205.086 165.47L347.16 587.296c-15.71 3.703-23.773 21.984-14.777 36.332 4.914 7.828 12.398 11.816 21.738 11.816h457.89c16.137 0 29.22 13.086 29.22 29.223 0 16.14-13.083 29.223-29.22 29.223h-457.89c-60.922 0-101.988-62.86-75.812-118.286 3.449-7.289 7.738-13.843 12.765-19.609l-150.789-371.21-36.57-26.477c-32.625 17.472-72.973 7.261-93.54-23.38-22.136-32.968-13.292-77.62 19.653-99.738 32.969-22.132 77.613-13.289 99.73 19.653 10.91 16.258 15.153 37.242 10.118 57.46l35.828 25.938 383.66 55.985C562.2 83.207 653.172-5.883 764.93-5.883c56.86 0 108.351 23.063 145.601 60.344l34.832-34.844c11.418-11.41 29.918-11.41 41.328 0 11.407 11.406 11.407 29.91 0 41.317l-40.816 40.812c54.406 100.004 16.871 225.406-83.344 279.488zM678.992 210.445c-11.41-11.414-11.41-29.91 0-41.328 11.403-11.41 29.91-11.41 41.313 0l37.785 37.781L869.21 95.773c-56.23-58.136-151.995-56.574-208.519-.046-57.554 57.554-57.554 150.898 0 208.464 57.57 57.559 150.91 57.559 208.47 0 42.87-42.859 53.796-105.554 32.831-158.562L778.75 268.875c-11.406 11.414-29.91 11.414-41.313 0zM81.172 87.265c-6.473-9.644-22.211-7.245-24.61 4.962-2.43 12.39 11.262 20.449 20.93 13.964 6.145-4.125 7.781-12.808 3.68-18.925zm261.937 441.731c30.82-3.168 62.512-8.082 93.332-12.125L399.34 388.79l-114.48-3.184zm117.34-138.512l34.414 118.754 122.899-16.082-17.184-98.777zM260.922 326.68l121.394 3.375-31.062-107.211-140.86-20.563zm0 0" fill-rule="evenodd"/></symbol><symbol id="speech-bubble" viewBox="0 0 33 33"><path d="M7.282 32.706a.5.5 0 0 1-.5-.5v-7.124C2.405 22.806 0 18.821 0 13.828 0 6.112 7.093.294 16.5.294S33 6.112 33 13.828c0 7.715-7.093 13.533-16.5 13.533-.309 0-.612-.017-.916-.033l-.02-.001-8.007 5.296a.498.498 0 0 1-.275.083zM16.5 1.294C7.664 1.294 1 6.683 1 13.828c0 3.323 1.128 7.842 6.503 10.499a.5.5 0 0 1 .278.448v6.501l7.369-4.874a.456.456 0 0 1 .302-.082l.186.01c.286.016.571.031.861.031 8.836 0 15.5-5.388 15.5-12.533S25.336 1.294 16.5 1.294z"/></symbol><symbol id="temp-icon-left-arrow" viewBox="0 0 31.494 31.494"><path d="M10.273 5.01a1.117 1.117 0 0 1 1.587 1.57l-8.047 8.047h26.554c.62 0 1.127.492 1.127 1.11 0 .62-.508 1.128-1.127 1.128H3.813l8.047 8.032c.43.444.43 1.16 0 1.587a1.112 1.112 0 0 1-1.587 0L.32 16.532a1.12 1.12 0 0 1 0-1.57l9.953-9.953z" fill="#FFF"/></symbol><symbol id="temp-icon-right-arrow" viewBox="0 0 31.49 31.49"><path d="M21.205 5.007a1.117 1.117 0 0 0-1.587 1.57l8.047 8.048H1.11c-.618 0-1.11.493-1.11 1.112 0 .62.492 1.127 1.11 1.127h26.555l-8.047 8.032c-.43.444-.43 1.16 0 1.587.444.444 1.16.444 1.587 0l9.952-9.952a1.092 1.092 0 0 0 0-1.57l-9.952-9.95z" fill="#1E201D"/></symbol><symbol id="trophy" viewBox="-52 1 511 511.999"><path d="M95.766 429.473l-7.168 43.422a7.571 7.571 0 0 0 7.473 8.809h215.851a7.574 7.574 0 0 0 7.36-9.368l-7.075-42.863a7.573 7.573 0 0 0-7.473-6.34H103.238a7.573 7.573 0 0 0-7.472 6.34zm13.898 8.808H298.31l4.668 28.274h-197.98zm0 0"/><path d="M365.832 49.914a27.614 27.614 0 0 0 3.266-13.055v-9.09C369.098 12.462 356.64 0 341.328 0H66.645c-15.313 0-27.77 12.46-27.77 27.77v9.09c0 4.714 1.184 9.16 3.266 13.054C18.67 53.02.5 73.148.5 97.45v66.653c0 26.449 21.52 47.968 47.969 47.968H71.87c9.02 35.575 39.672 62.61 77.078 66.235v13.039c0 12.687 8.555 23.406 20.196 26.715V353.5c-11.641 3.305-20.196 14.027-20.196 26.715v12.62h-13.887c-4.183 0-7.574 3.392-7.574 7.575s3.39 7.574 7.574 7.574h177.493c6.03 0 11.246 4.297 12.394 10.215l14.688 75.649c.195 1.015-.25 1.742-.532 2.086s-.91.918-1.949.918H70.816a2.482 2.482 0 0 1-1.949-.918 2.475 2.475 0 0 1-.531-2.086l14.687-75.649c1.149-5.918 6.36-10.215 12.391-10.215h3.988c4.184 0 7.575-3.39 7.575-7.574s-3.391-7.574-7.575-7.574h-3.988c-13.266 0-24.73 9.453-27.262 22.476l-14.687 75.645a17.62 17.62 0 0 0 3.715 14.613A17.609 17.609 0 0 0 70.816 512H337.16a17.613 17.613 0 0 0 13.633-6.43 17.623 17.623 0 0 0 3.715-14.613l-14.688-75.644c-2.53-13.024-13.996-22.477-27.261-22.477h-53.536v-12.621c0-12.688-8.554-23.41-20.195-26.715v-35.441c11.64-3.305 20.195-14.028 20.195-26.715v-13.04c37.403-3.624 68.059-30.66 77.079-66.234h23.402c26.453 0 47.969-21.52 47.969-47.968V97.453c0-24.305-18.172-44.433-41.641-47.539zM69.168 196.922h-20.7c-18.097 0-32.82-14.723-32.82-32.82V97.453c0-18.098 14.723-32.82 32.82-32.82h20.704v15.144H48.469c-9.746 0-17.672 7.93-17.672 17.676v66.649c0 9.746 7.926 17.675 17.672 17.675h20.703v15.145zm0-30.293h-20.7a2.529 2.529 0 0 1-2.527-2.527V97.453a2.529 2.529 0 0 1 2.528-2.527h20.699zM223.68 319.117v33.324h-39.387v-33.324zm20.195 61.098v12.62h-79.777v-12.62c0-6.961 5.66-12.625 12.62-12.625h54.536c6.96 0 12.621 5.664 12.621 12.625zm-12.621-76.246h-54.535c-6.961 0-12.621-5.664-12.621-12.625v-12.621h79.777v12.62c0 6.962-5.66 12.626-12.621 12.626zm19.187-40.395h-92.906c-40.37 0-73.215-32.844-73.215-73.215V64.633h15.211c4.18 0 7.57-3.395 7.57-7.574a7.573 7.573 0 0 0-7.57-7.575H66.645c-6.961 0-12.622-5.664-12.622-12.625v-9.09c0-6.96 5.66-12.62 12.622-12.62h274.683c6.961 0 12.621 5.663 12.621 12.62v9.09c0 6.961-5.66 12.625-12.62 12.625H134.894a7.574 7.574 0 0 0-7.575 7.575c0 4.18 3.39 7.574 7.575 7.574h188.761v46.578a7.574 7.574 0 0 0 7.574 7.574 7.574 7.574 0 0 0 7.575-7.574V94.926h20.699a2.529 2.529 0 0 1 2.527 2.527v66.649a2.529 2.529 0 0 1-2.527 2.527h-20.7v-20.367a7.574 7.574 0 0 0-7.574-7.575 7.574 7.574 0 0 0-7.574 7.575v44.097c0 40.371-32.847 73.215-73.215 73.215zm141.883-99.472c0 18.097-14.722 32.824-32.82 32.824H338.8v-15.149h20.703c9.746 0 17.672-7.93 17.672-17.675V97.453c0-9.746-7.926-17.676-17.672-17.676H338.8V64.633h20.703c18.098 0 32.824 14.722 32.824 32.82v66.649zm0 0"/></symbol></svg>